<?xml version="1.0" encoding="UTF-8"?>
<svg id="Layer_1" data-name="Layer 1" xmlns="http://www.w3.org/2000/svg" xmlns:xlink="http://www.w3.org/1999/xlink" viewBox="0 0 400 400">
  <defs>
    <style>
      .cls-1 {
        fill: #0f1419;
      }

      .cls-2 {
        fill: url(#linear-gradient);
      }
    </style>
    <linearGradient id="linear-gradient" x1="88.76" y1="191.13" x2="303.61" y2="191.13" gradientUnits="userSpaceOnUse">
      <stop offset="0" stop-color="#2f80ed"/>
      <stop offset="1" stop-color="#8adeff"/>
    </linearGradient>
  </defs>
  <rect class="cls-1" x="0" width="400" height="400"/>
  <path class="cls-2" d="m88.76,83.71v214.85h214.85V83.71H88.76Zm87.42,91.58c0,6.46-5.23,11.7-11.73,11.7-3.22,0-6.15-1.29-8.26-3.44-2.14-2.11-3.44-5.04-3.44-8.26v-8.29c0-6.49,5.23-11.73,11.7-11.73,3.25,0,6.18,1.29,8.29,3.44,2.11,2.11,3.44,5.04,3.44,8.29v8.29Zm63.43,39.94c0,6.49-5.26,11.73-11.73,11.73h-.03c-6.46,0-11.7-5.23-11.7-11.73v-8.26c0-6.46,5.23-11.73,11.7-11.73h.03c6.46,0,11.73,5.26,11.73,11.73v8.26Zm0-39.94c0,6.46-5.26,11.7-11.73,11.7h-8.29c-6.46,0-11.7,5.26-11.7,11.73v40.01c0,6.46-5.26,11.7-11.73,11.7-3.22,0-6.18-1.29-8.29-3.44-2.11-2.11-3.44-5.04-3.44-8.26v-95.18c0-6.46,5.26-11.7,11.73-11.7,3.22,0,6.18,1.32,8.29,3.44,2.11,2.11,3.44,5.01,3.44,8.26s1.32,6.18,3.44,8.29c2.11,2.14,5.01,3.44,8.26,3.44h8.29c6.46,0,11.73,5.23,11.73,11.73v8.29Z"/>
</svg>